<?xml version="1.0" encoding="UTF-8" standalone="no"?>
<!-- Created with Inkscape (http://www.inkscape.org/) -->

<svg
   width="170.34999mm"
   height="170.34999mm"
   viewBox="0 0 170.34999 170.34999"
   version="1.1"
   id="svg5"
   inkscape:export-filename="/home/robin/logo_512.png"
   inkscape:export-xdpi="76.341652"
   inkscape:export-ydpi="76.341652"
   inkscape:version="1.1.2 (0a00cf5, 2022-02-04)"
   sodipodi:docname="bromine.svg"
   xmlns:inkscape="http://www.inkscape.org/namespaces/inkscape"
   xmlns:sodipodi="http://sodipodi.sourceforge.net/DTD/sodipodi-0.dtd"
   xmlns="http://www.w3.org/2000/svg"
   xmlns:svg="http://www.w3.org/2000/svg">
  <sodipodi:namedview
     id="namedview7"
     pagecolor="#505050"
     bordercolor="#eeeeee"
     borderopacity="1"
     inkscape:pageshadow="0"
     inkscape:pageopacity="0"
     inkscape:pagecheckerboard="0"
     inkscape:document-units="mm"
     showgrid="false"
     fit-margin-top="0"
     fit-margin-left="0"
     fit-margin-right="0"
     fit-margin-bottom="0"
     inkscape:zoom="0.55945567"
     inkscape:cx="237.73108"
     inkscape:cy="352.12799"
     inkscape:window-width="1440"
     inkscape:window-height="838"
     inkscape:window-x="0"
     inkscape:window-y="0"
     inkscape:window-maximized="1"
     inkscape:current-layer="layer1" />
  <defs
     id="defs2" />
  <g
     inkscape:groupmode="layer"
     id="layer2"
     inkscape:label="Layer 2"
     transform="translate(1,37.816357)" />
  <g
     inkscape:label="Layer 1"
     inkscape:groupmode="layer"
     id="layer1"
     transform="translate(-30.676139,-55.886134)">
    <path
       id="path846"
       style="fill:#894d26;fill-opacity:0.996307;stroke:#ad511a;stroke-width:2;stroke-linecap:round;stroke-linejoin:round;stroke-miterlimit:4;stroke-dasharray:none;stroke-opacity:0.698039;stop-color:#000000"
       d="m 98.220683,56.886134 c -2.079696,0 -3.753776,1.172673 -3.753776,2.62929 v 3.426138 c 0,1.456621 1.67408,2.62929 3.753776,2.62929 h 0.6966 V 95.967367 A 65.767173,65.767001 0 0 0 50.084089,159.46926 65.767173,65.767001 0 0 0 115.85113,225.23613 65.767173,65.767001 0 0 0 181.61818,159.46926 65.767173,65.767001 0 0 0 132.7855,95.921891 V 65.570852 h 0.69608 c 2.0797,0 3.75429,-1.172669 3.75429,-2.62929 v -3.426138 c 0,-1.456617 -1.67459,-2.62929 -3.75429,-2.62929 z" />
    <path
       id="rect3377"
       style="fill:#240f02;fill-opacity:0.918244;stroke:#ad511a;stroke-width:0;stroke-linecap:round;stroke-linejoin:round;stroke-miterlimit:4;stroke-dasharray:none;stroke-opacity:0.698039;stop-color:#000000"
       d="m 115.87211,222.17232 a 64.538633,69.430392 0 0 0 63.35468,-56.45079 H 52.475477 a 64.538633,69.430392 0 0 0 63.396633,56.45079 z" />
    <g
       aria-label="Br"
       id="text10105"
       style="font-size:42.3333px;line-height:1.25;letter-spacing:0px;word-spacing:0px;fill:#2c1304;stroke-width:0.264583">
      <path
         d="m 103.64517,132.81244 q 1.88102,0 2.85253,-0.82682 0.97152,-0.82683 0.97152,-2.43913 0,-1.59163 -0.97152,-2.41846 -0.97151,-0.84749 -2.85253,-0.84749 h -4.402831 v 6.5319 z m 0.26871,13.49787 q 2.39779,0 3.59668,-1.01286 1.21956,-1.01285 1.21956,-3.05924 0,-2.00504 -1.19889,-2.99723 -1.19889,-1.01286 -3.61735,-1.01286 h -4.671541 v 8.08219 z m 7.40006,-11.10009 q 2.56315,0.74414 3.96875,2.74919 1.4056,2.00504 1.4056,4.91959 0,4.46484 -3.0179,6.65592 -3.0179,2.19108 -9.17773,2.19108 H 91.284174 v -30.86114 h 11.947586 q 6.42854,0 9.30175,1.94303 2.89388,1.94303 2.89388,6.22184 0,2.25309 -1.0542,3.84472 -1.0542,1.57096 -3.05925,2.33577 z"
         style="font-weight:bold;font-family:'Amiri Quran Colored';-inkscape-font-specification:'Amiri Quran Colored Bold'"
         id="path47650" />
      <path
         d="m 140.41809,134.87949 q -0.97152,-0.45475 -1.94303,-0.66145 -0.95085,-0.22738 -1.92237,-0.22738 -2.85253,0 -4.40283,1.83968 -1.52962,1.81901 -1.52962,5.22965 V 151.726 h -7.40006 v -23.15103 h 7.40006 v 3.80339 q 1.42627,-2.27377 3.26595,-3.30729 1.86035,-1.0542 4.44417,-1.0542 0.37207,0 0.80615,0.0413 0.43409,0.0207 1.26091,0.12402 z"
         style="font-weight:bold;font-family:'Amiri Quran Colored';-inkscape-font-specification:'Amiri Quran Colored Bold'"
         id="path47652" />
    </g>
  </g>
</svg>
